<svg width="50" height="47" viewBox="0 0 50 47" fill="none" xmlns="http://www.w3.org/2000/svg">
<path d="M25 14.6875C23.1458 14.6875 21.3332 15.2043 19.7915 16.1727C18.2498 17.141 17.0482 18.5173 16.3386 20.1276C15.6291 21.7379 15.4434 23.5098 15.8051 25.2192C16.1669 26.9287 17.0598 28.4989 18.3709 29.7314C19.682 30.9638 21.3525 31.8031 23.171 32.1432C24.9896 32.4832 26.8746 32.3087 28.5877 31.6417C30.3007 30.9747 31.7649 29.8452 32.795 28.396C33.8252 26.9468 34.375 25.2429 34.375 23.5C34.3724 21.1635 33.3839 18.9234 31.6263 17.2713C29.8687 15.6192 27.4856 14.6899 25 14.6875ZM25 29.375C23.7639 29.375 22.5555 29.0304 21.5277 28.3849C20.4999 27.7393 19.6988 26.8218 19.2258 25.7483C18.7527 24.6747 18.6289 23.4935 18.8701 22.3538C19.1112 21.2142 19.7065 20.1674 20.5806 19.3457C21.4547 18.5241 22.5683 17.9646 23.7807 17.7379C24.9931 17.5112 26.2497 17.6275 27.3918 18.0722C28.5338 18.5169 29.5099 19.2699 30.1967 20.236C30.8834 21.2022 31.25 22.338 31.25 23.5C31.25 25.0581 30.5915 26.5525 29.4194 27.6543C28.2473 28.756 26.6576 29.375 25 29.375ZM34.375 4.40625H15.625C12.7251 4.40917 9.94495 5.4933 7.89445 7.42078C5.84394 9.34826 4.6906 11.9616 4.6875 14.6875V32.3125C4.6906 35.0384 5.84394 37.6517 7.89445 39.5792C9.94495 41.5067 12.7251 42.5908 15.625 42.5938H34.375C37.2749 42.5908 40.055 41.5067 42.1056 39.5792C44.1561 37.6517 45.3094 35.0384 45.3125 32.3125V14.6875C45.3094 11.9616 44.1561 9.34826 42.1056 7.42078C40.055 5.4933 37.2749 4.40917 34.375 4.40625ZM42.1875 32.3125C42.1875 34.2602 41.3644 36.1281 39.8993 37.5053C38.4341 38.8825 36.447 39.6562 34.375 39.6562H15.625C13.553 39.6562 11.5659 38.8825 10.1007 37.5053C8.6356 36.1281 7.8125 34.2602 7.8125 32.3125V14.6875C7.8125 12.7398 8.6356 10.8719 10.1007 9.49468C11.5659 8.11746 13.553 7.34375 15.625 7.34375H34.375C36.447 7.34375 38.4341 8.11746 39.8993 9.49468C41.3644 10.8719 42.1875 12.7398 42.1875 14.6875V32.3125ZM37.5 13.9531C37.5 14.3889 37.3625 14.8148 37.105 15.1771C36.8475 15.5394 36.4814 15.8218 36.0532 15.9885C35.6249 16.1553 35.1537 16.1989 34.699 16.1139C34.2444 16.0289 33.8267 15.8191 33.499 15.511C33.1712 15.2029 32.948 14.8103 32.8575 14.3829C32.7671 13.9556 32.8135 13.5126 32.9909 13.11C33.1683 12.7075 33.4687 12.3634 33.8541 12.1213C34.2396 11.8792 34.6927 11.75 35.1562 11.75C35.7779 11.75 36.374 11.9821 36.8135 12.3953C37.2531 12.8084 37.5 13.3688 37.5 13.9531Z" fill="white"/>
</svg>
