<svg width="47" height="51" viewBox="0 0 47 51" fill="none" xmlns="http://www.w3.org/2000/svg">
<g filter="url(#filter0_d_607_595)">
<path d="M39.6562 4.40625H7.34375C6.56468 4.40625 5.81751 4.71574 5.26662 5.26662C4.71574 5.81751 4.40625 6.56468 4.40625 7.34375V39.6562C4.40625 40.4353 4.71574 41.1825 5.26662 41.7334C5.81751 42.2843 6.56468 42.5938 7.34375 42.5938H39.6562C40.4353 42.5938 41.1825 42.2843 41.7334 41.7334C42.2843 41.1825 42.5938 40.4353 42.5938 39.6562V7.34375C42.5938 6.56468 42.2843 5.81751 41.7334 5.26662C41.1825 4.71574 40.4353 4.40625 39.6562 4.40625ZM39.6562 39.6562H7.34375V7.34375H39.6562V39.6562ZM17.625 20.5625V32.3125C17.625 32.702 17.4703 33.0756 17.1948 33.3511C16.9194 33.6265 16.5458 33.7812 16.1562 33.7812C15.7667 33.7812 15.3931 33.6265 15.1177 33.3511C14.8422 33.0756 14.6875 32.702 14.6875 32.3125V20.5625C14.6875 20.173 14.8422 19.7994 15.1177 19.5239C15.3931 19.2485 15.7667 19.0938 16.1562 19.0938C16.5458 19.0938 16.9194 19.2485 17.1948 19.5239C17.4703 19.7994 17.625 20.173 17.625 20.5625ZM33.7812 25.7031V32.3125C33.7812 32.702 33.6265 33.0756 33.3511 33.3511C33.0756 33.6265 32.702 33.7812 32.3125 33.7812C31.923 33.7812 31.5494 33.6265 31.2739 33.3511C30.9985 33.0756 30.8438 32.702 30.8438 32.3125V25.7031C30.8438 24.7293 30.4569 23.7953 29.7683 23.1067C29.0797 22.4181 28.1457 22.0312 27.1719 22.0312C26.198 22.0312 25.2641 22.4181 24.5755 23.1067C23.8869 23.7953 23.5 24.7293 23.5 25.7031V32.3125C23.5 32.702 23.3453 33.0756 23.0698 33.3511C22.7944 33.6265 22.4208 33.7812 22.0312 33.7812C21.6417 33.7812 21.2681 33.6265 20.9927 33.3511C20.7172 33.0756 20.5625 32.702 20.5625 32.3125V20.5625C20.5643 20.2027 20.6981 19.8562 20.9385 19.5885C21.1789 19.3208 21.5092 19.1507 21.8667 19.1104C22.2242 19.0701 22.5841 19.1624 22.878 19.3699C23.172 19.5773 23.3796 19.8854 23.4614 20.2357C24.455 19.5617 25.6134 19.171 26.8123 19.1057C28.0112 19.0404 29.2052 19.3029 30.2661 19.865C31.327 20.427 32.2148 21.2675 32.8341 22.2961C33.4534 23.3246 33.7809 24.5025 33.7812 25.7031ZM18.3594 15.4219C18.3594 15.8576 18.2302 16.2836 17.9881 16.6459C17.746 17.0082 17.4019 17.2905 16.9993 17.4573C16.5968 17.624 16.1538 17.6677 15.7264 17.5827C15.2991 17.4977 14.9065 17.2878 14.5984 16.9797C14.2903 16.6716 14.0805 16.279 13.9955 15.8517C13.9104 15.4243 13.9541 14.9813 14.1208 14.5788C14.2876 14.1762 14.57 13.8321 14.9323 13.59C15.2946 13.348 15.7205 13.2188 16.1562 13.2188C16.7406 13.2188 17.3009 13.4509 17.7141 13.864C18.1273 14.2772 18.3594 14.8376 18.3594 15.4219Z" fill="white"/>
</g>
<defs>
<filter id="filter0_d_607_595" x="-4" y="0" width="55" height="55" filterUnits="userSpaceOnUse" color-interpolation-filters="sRGB">
<feFlood flood-opacity="0" result="BackgroundImageFix"/>
<feColorMatrix in="SourceAlpha" type="matrix" values="0 0 0 0 0 0 0 0 0 0 0 0 0 0 0 0 0 0 127 0" result="hardAlpha"/>
<feOffset dy="4"/>
<feGaussianBlur stdDeviation="2"/>
<feComposite in2="hardAlpha" operator="out"/>
<feColorMatrix type="matrix" values="0 0 0 0 0 0 0 0 0 0 0 0 0 0 0 0 0 0 0.25 0"/>
<feBlend mode="normal" in2="BackgroundImageFix" result="effect1_dropShadow_607_595"/>
<feBlend mode="normal" in="SourceGraphic" in2="effect1_dropShadow_607_595" result="shape"/>
</filter>
</defs>
</svg>
