<svg width="47" height="47" viewBox="0 0 47 47" fill="none" xmlns="http://www.w3.org/2000/svg">
<path d="M41.125 13.2188C38.7885 13.2163 36.5484 12.2871 34.8963 10.6349C33.2442 8.98281 32.3149 6.74272 32.3125 4.40625C32.3125 4.01671 32.1578 3.64313 31.8823 3.36769C31.6069 3.09224 31.2333 2.9375 30.8438 2.9375H23.5C23.1105 2.9375 22.7369 3.09224 22.4614 3.36769C22.186 3.64313 22.0312 4.01671 22.0312 4.40625V28.6406C22.0309 29.2977 21.8543 29.9426 21.5199 30.5082C21.1854 31.0737 20.7053 31.5391 20.1296 31.8559C19.554 32.1727 18.9039 32.3292 18.2471 32.3091C17.5904 32.289 16.9511 32.0931 16.3958 31.7417C15.8406 31.3904 15.3899 30.8965 15.0906 30.3115C14.7913 29.7266 14.6544 29.0721 14.6943 28.4162C14.7341 27.7604 14.9492 27.1273 15.3171 26.5829C15.6851 26.0385 16.1923 25.6028 16.786 25.3212C17.0371 25.2021 17.2493 25.0141 17.3978 24.7791C17.5463 24.5441 17.6251 24.2718 17.625 23.9939V16.1562C17.6251 15.9416 17.5781 15.7294 17.4874 15.5349C17.3966 15.3403 17.2643 15.168 17.0998 15.03C16.9353 14.8921 16.7425 14.7919 16.5351 14.7366C16.3277 14.6812 16.1106 14.672 15.8992 14.7095C9.34676 15.8772 4.40625 21.866 4.40625 28.6406C4.40625 32.3412 5.87631 35.8903 8.49303 38.507C11.1097 41.1237 14.6588 42.5938 18.3594 42.5938C22.06 42.5938 25.609 41.1237 28.2257 38.507C30.8424 35.8903 32.3125 32.3412 32.3125 28.6406V21.3501C35.0327 22.7694 38.0568 23.5071 41.125 23.5C41.5145 23.5 41.8881 23.3453 42.1636 23.0698C42.439 22.7944 42.5938 22.4208 42.5938 22.0312V14.6875C42.5938 14.298 42.439 13.9244 42.1636 13.6489C41.8881 13.3735 41.5145 13.2188 41.125 13.2188ZM39.6562 20.4964C36.786 20.2421 34.0376 19.2177 31.7011 17.5314C31.4815 17.3735 31.2226 17.2793 30.9529 17.2592C30.6831 17.2391 30.4131 17.2939 30.1725 17.4175C29.9319 17.5411 29.7302 17.7288 29.5894 17.9597C29.4487 18.1907 29.3745 18.4561 29.375 18.7266V28.6406C29.375 31.5622 28.2144 34.364 26.1486 36.4298C24.0828 38.4957 21.2809 39.6562 18.3594 39.6562C15.4378 39.6562 12.636 38.4957 10.5702 36.4298C8.50432 34.364 7.34375 31.5622 7.34375 28.6406C7.34375 23.8855 10.3987 19.6207 14.6875 18.0656V23.1457C13.738 23.78 12.9691 24.6496 12.4557 25.6695C11.9423 26.6895 11.7019 27.8251 11.758 28.9656C11.814 30.1061 12.1646 31.2126 12.7755 32.1774C13.3864 33.1421 14.2369 33.932 15.2439 34.4703C16.251 35.0085 17.3804 35.2767 18.5219 35.2486C19.6634 35.2205 20.7782 34.8972 21.7576 34.3101C22.737 33.7229 23.5476 32.8921 24.1104 31.8985C24.6731 30.9049 24.9689 29.7825 24.9688 28.6406V5.875H29.4668C29.7971 8.46199 30.9769 10.8661 32.821 12.7103C34.6651 14.5544 37.0693 15.7341 39.6562 16.0645V20.4964Z" fill="white"/>
</svg>
