<svg width="47" height="47" viewBox="0 0 47 47" fill="none" xmlns="http://www.w3.org/2000/svg">
<path d="M45.4193 12.657C45.3082 12.3886 45.12 12.1591 44.8785 11.9977C44.637 11.8363 44.353 11.7501 44.0625 11.75H38.4758C37.6947 10.4211 36.583 9.31695 35.2489 8.54484C33.9147 7.77273 32.4035 7.35896 30.8621 7.34376C29.7138 7.3287 28.574 7.54346 27.5099 7.97541C26.4458 8.40737 25.4788 9.04779 24.6658 9.85899C23.8292 10.6801 23.1651 11.6601 22.7126 12.7416C22.2602 13.823 22.0285 14.984 22.0313 16.1563V17.2743C14.6398 15.3246 8.59405 9.31188 8.52979 9.24763C8.33275 9.04883 8.083 8.91048 7.80996 8.84887C7.53692 8.78726 7.25195 8.80495 6.98863 8.89987C6.72531 8.99478 6.49459 9.16296 6.32364 9.3846C6.1527 9.60624 6.04865 9.87211 6.02374 10.1509C5.23245 18.9249 7.78073 24.7962 10.0628 28.1761C11.1755 29.847 12.5292 31.3442 14.0798 32.6191C11.2837 35.8375 6.88112 37.5284 6.83339 37.5468C6.62614 37.6244 6.43911 37.7478 6.28627 37.9079C6.13344 38.068 6.01875 38.2605 5.95078 38.4711C5.88281 38.6817 5.86332 38.905 5.89376 39.1242C5.92419 39.3434 6.00377 39.5529 6.12655 39.737C6.26425 39.9427 6.81503 40.6642 8.16077 41.338C9.82413 42.1715 12.0217 42.5938 14.6875 42.5938C27.6621 42.5938 38.5033 32.6026 39.6104 19.7474L45.1017 14.2579C45.307 14.0524 45.4468 13.7906 45.5033 13.5056C45.5599 13.2206 45.5306 12.9253 45.4193 12.657ZM37.1576 18.0565C36.9058 18.3089 36.7544 18.6443 36.7316 19.0001C35.9844 30.5831 26.3053 39.6563 14.6875 39.6563C12.7488 39.6563 11.3828 39.3992 10.4245 39.0908C12.5376 37.9433 15.4843 35.9697 17.379 33.1277C17.4902 32.9606 17.566 32.7724 17.6016 32.5749C17.6373 32.3773 17.6321 32.1746 17.5863 31.9791C17.5405 31.7837 17.4552 31.5997 17.3356 31.4385C17.2159 31.2773 17.0645 31.1424 16.8907 31.042C16.8044 30.9925 8.82905 26.2062 8.81253 13.417C11.75 15.8038 17.1201 19.5068 23.2558 20.5386C23.4661 20.5741 23.6816 20.5633 23.8873 20.5071C24.093 20.4509 24.284 20.3505 24.447 20.213C24.61 20.0755 24.7412 19.9042 24.8313 19.7109C24.9214 19.5176 24.9683 19.307 24.9688 19.0938V16.1563C24.9671 15.3728 25.1222 14.5969 25.4249 13.8742C25.7276 13.1515 26.1718 12.4967 26.7313 11.9483C27.2677 11.4109 27.9063 10.9865 28.6095 10.7002C29.3127 10.4138 30.0662 10.2714 30.8254 10.2813C33.1497 10.3106 35.3216 11.728 36.2304 13.8081C36.345 14.0696 36.5333 14.2921 36.7723 14.4483C37.0113 14.6045 37.2906 14.6876 37.5762 14.6875H40.5137L37.1576 18.0565Z" fill="white"/>
</svg>
