<svg width="164" height="52" viewBox="0 0 164 52" fill="none" xmlns="http://www.w3.org/2000/svg">
<g clip-path="url(#clip0_734_254)">
<path d="M15.3729 25.7002C16.8993 25.9936 18.1547 26.7802 19.1384 28.0602C20.1214 29.3402 20.6136 30.8068 20.6136 32.4602C20.6136 33.9536 20.251 35.2736 19.5266 36.4202C18.8279 37.5402 17.8054 38.4202 16.4599 39.0602C15.1136 39.7002 13.522 40.0202 11.685 40.0202H0V12.1002H11.1804C13.0173 12.1002 14.5965 12.4068 15.9164 13.0202C17.2619 13.6336 18.2712 14.4868 18.9443 15.5802C19.6431 16.6736 19.9925 17.9136 19.9925 19.3002C19.9925 20.9268 19.5655 22.2868 18.7114 23.3802C17.883 24.4736 16.7704 25.2468 15.3729 25.7002ZM5.43501 23.6202H10.404C11.6974 23.6202 12.6943 23.3268 13.3931 22.7402C14.0918 22.1268 14.4412 21.2602 14.4412 20.1402C14.4412 19.0202 14.0918 18.1536 13.3931 17.5402C12.6943 16.9268 11.6974 16.6202 10.404 16.6202H5.43501V23.6202ZM10.9086 35.4602C12.2285 35.4602 13.2502 35.1402 13.9754 34.5002C14.7254 33.8602 15.1012 32.9536 15.1012 31.7802C15.1012 30.5802 14.713 29.6468 13.9366 28.9802C13.1602 28.2868 12.112 27.9402 10.7922 27.9402H5.43501V35.4602H10.9086ZM41.56 34.7002H30.7681L28.9824 40.0202H23.2759L33.0196 12.0602H39.3473L49.0911 40.0202H43.3457L41.56 34.7002ZM40.0849 30.2202L36.1641 18.5402L32.2432 30.2202H40.0849ZM72.4925 20.7402C72.4925 22.2336 72.1431 23.6336 71.4443 24.9402C70.7712 26.2468 69.6974 27.3002 68.2223 28.1002C66.7727 28.9002 64.935 29.3002 62.7099 29.3002H58.1679V40.0202H52.7332V12.1002H62.7099C64.8061 12.1002 66.5918 12.4736 68.067 13.2202C69.5422 13.9668 70.6415 14.9936 71.3667 16.3002C72.1167 17.6068 72.4925 19.0868 72.4925 20.7402ZM62.4769 24.7802C63.9777 24.7802 65.0903 24.4336 65.8155 23.7402C66.5398 23.0202 66.9024 22.0202 66.9024 20.7402C66.9024 18.0202 65.4273 16.6602 62.4769 16.6602H58.1679V24.7802H62.4769ZM85.7068 40.3002C83.817 40.3002 82.1089 39.9668 80.5825 39.3002C79.081 38.6336 77.8908 37.6736 77.0111 36.4202C76.1307 35.1668 75.678 33.6868 75.6524 31.9802H81.4754C81.553 33.1268 81.9412 34.0336 82.64 34.7002C83.3644 35.3668 84.3481 35.7002 85.5903 35.7002C86.8582 35.7002 87.8543 35.3936 88.5794 34.7802C89.3038 34.1402 89.6664 33.3136 89.6664 32.3002C89.6664 31.4736 89.4203 30.7936 88.9288 30.2602C88.4366 29.7268 87.8155 29.3136 87.0655 29.0202C86.3403 28.7002 85.331 28.3536 84.0375 27.9802C82.2774 27.4468 80.8411 26.9268 79.7285 26.4202C78.6415 25.8868 77.6967 25.1002 76.8946 24.0602C76.1182 22.9936 75.73 21.5802 75.73 19.8202C75.73 18.1668 76.1307 16.7268 76.9335 15.5002C77.7355 14.2736 78.8613 13.3402 80.3108 12.7002C81.7595 12.0336 83.4164 11.7002 85.2797 11.7002C88.0748 11.7002 90.3387 12.4068 92.0732 13.8202C93.8325 15.2068 94.803 17.1536 94.9847 19.6602H89.0064C88.9544 18.7002 88.553 17.9136 87.803 17.3002C87.0779 16.6602 86.1074 16.3402 84.8915 16.3402C83.8302 16.3402 82.9762 16.6202 82.3294 17.1802C81.7083 17.7402 81.3977 18.5536 81.3977 19.6202C81.3977 20.3668 81.6307 20.9936 82.0965 21.5002C82.588 21.9802 83.1835 22.3802 83.8822 22.7002C84.6066 22.9936 85.6159 23.3402 86.9102 23.7402C88.6695 24.2736 90.1058 24.8068 91.2192 25.3402C92.3318 25.8736 93.2891 26.6736 94.0919 27.7402C94.8939 28.8068 95.2953 30.2068 95.2953 31.9402C95.2953 33.4336 94.9195 34.8202 94.1695 36.1002C93.4187 37.3802 92.3186 38.4068 90.8698 39.1802C89.4203 39.9268 87.699 40.3002 85.7068 40.3002ZM105.441 12.1002V40.0202H100.006V12.1002H105.441Z" fill="#890082"/>
<mask id="mask0_734_254" style="mask-type:luminance" maskUnits="userSpaceOnUse" x="115" y="0" width="49" height="52">
<path d="M161.249 0H117.77C116.484 0 115.441 1.07452 115.441 2.4V49.6C115.441 50.9255 116.484 52 117.77 52H161.249C162.535 52 163.578 50.9255 163.578 49.6V2.4C163.578 1.07452 162.535 0 161.249 0Z" fill="white"/>
</mask>
<g mask="url(#mask0_734_254)">
<path opacity="0.9" d="M157.367 0H115.441V45.6H157.367V0Z" fill="#890082" fill-opacity="0.8"/>
<path d="M164.354 8H123.205V52.8H164.354V8Z" fill="#FFE79B"/>
<path d="M131.153 22.4479V32.8159C131.153 33.9519 131.44 34.8239 132.015 35.4319C132.59 36.0239 133.397 36.3199 134.437 36.3199C135.493 36.3199 136.308 36.0239 136.883 35.4319C137.458 34.8239 137.745 33.9519 137.745 32.8159V22.4479H141.029V32.7919C141.029 34.2159 140.726 35.4239 140.121 36.4159C139.531 37.3919 138.731 38.1279 137.722 38.6239C136.728 39.1199 135.618 39.3679 134.391 39.3679C133.18 39.3679 132.077 39.1199 131.083 38.6239C130.105 38.1279 129.329 37.3919 128.754 36.4159C128.18 35.4239 127.892 34.2159 127.892 32.7919V22.4479H131.153ZM155.499 27.4879C155.127 26.7839 154.614 26.2479 153.962 25.8799C153.31 25.5119 152.549 25.3279 151.68 25.3279C150.717 25.3279 149.863 25.5519 149.117 25.9999C148.372 26.4479 147.79 27.0879 147.371 27.9199C146.951 28.7519 146.742 29.7119 146.742 30.7999C146.742 31.9199 146.951 32.8959 147.371 33.7279C147.805 34.5599 148.403 35.1999 149.164 35.6479C149.925 36.0959 150.81 36.3199 151.819 36.3199C153.062 36.3199 154.079 35.9839 154.871 35.3119C155.663 34.6239 156.183 33.6719 156.431 32.4559H150.841V29.8879H159.645V32.8159C159.428 33.9839 158.962 35.0639 158.248 36.0559C157.534 37.0479 156.61 37.8479 155.476 38.4559C154.358 39.0479 153.1 39.3439 151.703 39.3439C150.135 39.3439 148.714 38.9839 147.44 38.2639C146.183 37.5279 145.189 36.5119 144.459 35.2159C143.745 33.9199 143.388 32.4479 143.388 30.7999C143.388 29.1519 143.745 27.6799 144.459 26.3839C145.189 25.0719 146.183 24.0559 147.44 23.3359C148.714 22.5999 150.127 22.2319 151.68 22.2319C153.512 22.2319 155.104 22.6959 156.454 23.6239C157.805 24.5359 158.737 25.8239 159.249 27.4879H155.499Z" fill="#890082"/>
</g>
</g>
<defs>
<clipPath id="clip0_734_254">
<rect width="163.578" height="52" fill="white"/>
</clipPath>
</defs>
</svg>
